<svg xmlns="http://www.w3.org/2000/svg" width="29" height="28" viewBox="0 0 29 28" fill="none">
  <path fill-rule="evenodd" clip-rule="evenodd" d="M16.5827 1.09951C15.8898 -0.366502 13.8879 -0.366502 13.195 1.09951L10.3321 7.15675C10.057 7.73894 9.52512 8.14242 8.90993 8.23578L2.50831 9.20712C0.958925 9.44217 0.340277 11.4303 1.46136 12.5714L6.09361 17.2864C6.53886 17.7395 6.74201 18.3924 6.63686 19.0322L5.54333 25.6898C5.27874 27.3011 6.89834 28.5298 8.28413 27.769L14.0099 24.6258C14.5602 24.3237 15.2176 24.3237 15.7679 24.6257L21.4936 27.769C22.8794 28.5298 24.499 27.3011 24.2344 25.6898L23.1409 19.0322C23.0358 18.3924 23.2389 17.7395 23.6842 17.2864L28.3164 12.5714C29.4375 11.4303 28.8188 9.44217 27.2695 9.20712L20.8678 8.23578C20.2527 8.14242 19.7208 7.73894 19.4456 7.15675L16.5827 1.09951ZM13.4155 19.1135C13.7556 19.2582 14.1113 19.3305 14.4827 19.3305C14.9613 19.3305 15.3895 19.2221 15.7673 19.0051C16.145 18.7881 16.444 18.489 16.6645 18.1077C16.8848 17.7263 16.995 17.299 16.995 16.8256C16.995 16.3522 16.9006 15.9347 16.7117 15.5731C16.5228 15.2115 16.2552 14.9255 15.9089 14.7151C15.5689 14.5047 15.1659 14.3995 14.7 14.3995C14.3348 14.3995 14.0232 14.462 13.765 14.5869C13.7064 14.616 13.6499 14.6489 13.5953 14.6858L13.8126 12.9991H16.7305V11.8649H12.8961L12.3389 15.9479L13.3872 16.1944C13.4753 15.984 13.617 15.8229 13.8122 15.7112C14.0137 15.5994 14.2373 15.5435 14.4827 15.5435C14.7221 15.5435 14.9329 15.5994 15.1155 15.7112C15.2107 15.766 15.2946 15.8323 15.3676 15.9102C15.4347 15.982 15.4923 16.0635 15.5405 16.1549C15.6476 16.3456 15.7011 16.5692 15.7011 16.8256C15.7011 16.9821 15.6823 17.1276 15.6447 17.2621C15.6207 17.3479 15.5892 17.4292 15.55 17.506C15.5032 17.5947 15.4468 17.6749 15.3808 17.7466C15.305 17.8289 15.2165 17.8999 15.1155 17.9597C14.9329 18.0649 14.7221 18.1175 14.4827 18.1175C14.1931 18.1175 13.9286 18.0386 13.6894 17.8808C13.4502 17.7165 13.277 17.4666 13.17 17.1313L12.0555 17.5455C12.1437 17.9137 12.3074 18.2326 12.5466 18.5021C12.7922 18.7651 13.0818 18.9689 13.4155 19.1135Z" fill="#8F90BE"/>
</svg>