<svg xmlns="http://www.w3.org/2000/svg" width="29" height="28" viewBox="0 0 29 28" fill="none">
  <path d="M15.2986 18.1759C15.2133 18.1896 15.1233 18.1964 15.0286 18.1964C14.783 18.1964 14.5689 18.1504 14.3863 18.0584C14.21 17.9597 14.0716 17.8249 13.9708 17.654C13.8701 17.4765 13.8197 17.276 13.8197 17.0524C13.8197 16.8223 13.8701 16.625 13.9708 16.4607C14.0716 16.2898 14.21 16.1582 14.3863 16.0662C14.5689 15.9676 14.783 15.9182 15.0286 15.9182C15.2742 15.9182 15.4883 15.9676 15.6708 16.0662C15.8534 16.1582 15.9951 16.2898 16.0959 16.4607C16.1966 16.625 16.2469 16.8223 16.2469 17.0524C16.2469 17.276 16.1966 17.4765 16.0959 17.654C15.9951 17.8249 15.8534 17.9597 15.6708 18.0584C15.5586 18.1149 15.4345 18.1541 15.2986 18.1759Z" fill="#8F90BE"/>
  <path d="M15.5103 14.6559C15.3717 14.7414 15.2112 14.7841 15.0286 14.7841C14.9414 14.7841 14.8587 14.7744 14.7802 14.7549C14.6942 14.7336 14.6132 14.7007 14.5375 14.6559C14.4611 14.6089 14.3935 14.5538 14.3343 14.4907C14.2861 14.4393 14.2437 14.3826 14.2069 14.3206C14.1313 14.1759 14.0936 14.0116 14.0936 13.8275C14.0936 13.6434 14.1313 13.4823 14.2069 13.3443C14.2888 13.1996 14.3989 13.0878 14.5375 13.009C14.6823 12.9235 14.846 12.8808 15.0286 12.8808C15.2112 12.8808 15.3717 12.9235 15.5103 13.009C15.6488 13.0878 15.7559 13.1996 15.8314 13.3443C15.9132 13.4823 15.9542 13.6434 15.9542 13.8275C15.9542 14.0116 15.9132 14.1759 15.8314 14.3206C15.7931 14.3905 15.7469 14.4537 15.6924 14.5101C15.6394 14.5651 15.5787 14.6137 15.5103 14.6559Z" fill="#8F90BE"/>
  <path fill-rule="evenodd" clip-rule="evenodd" d="M16.2494 1.09951C15.5565 -0.366502 13.5546 -0.366502 12.8617 1.09951L9.99884 7.15675C9.72364 7.73894 9.1918 8.14242 8.57661 8.23578L2.175 9.20712C0.625612 9.44217 0.00696367 11.4303 1.12805 12.5714L5.7603 17.2864C6.20555 17.7395 6.40869 18.3924 6.30355 19.0322L5.21002 25.6898C4.94543 27.3011 6.56503 28.5298 7.95082 27.769L13.6766 24.6258C14.2269 24.3237 14.8843 24.3237 15.4345 24.6257L21.1603 27.769C22.5461 28.5298 24.1657 27.3011 23.9011 25.6898L22.8076 19.0322C22.7024 18.3924 22.9056 17.7395 23.3508 17.2864L27.9831 12.5714C29.1042 11.4303 28.4855 9.44217 26.9361 9.20712L20.5345 8.23578C19.9193 8.14242 19.3875 7.73894 19.1123 7.15675L16.2494 1.09951ZM13.6969 19.0347C14.0747 19.2319 14.5186 19.3305 15.0286 19.3305C15.5385 19.3305 15.9793 19.2319 16.3509 19.0347C16.7286 18.8309 17.0183 18.5613 17.2197 18.226C17.4275 17.8841 17.5314 17.5093 17.5314 17.1017C17.5314 16.6218 17.4087 16.2174 17.1631 15.8887C16.9927 15.656 16.7693 15.4629 16.4927 15.3093C16.6736 15.188 16.8246 15.0261 16.9459 14.8236C17.1411 14.5014 17.2386 14.1431 17.2386 13.7486C17.2386 13.3607 17.1411 13.0155 16.9459 12.7131C16.7569 12.4107 16.4957 12.174 16.1619 12.003C15.8345 11.8321 15.4568 11.7466 15.0286 11.7466C14.5941 11.7466 14.21 11.8321 13.8764 12.003C13.5426 12.174 13.2814 12.4107 13.0924 12.7131C12.9036 13.0155 12.8092 13.3607 12.8092 13.7486C12.8092 14.1365 12.9036 14.4915 13.0924 14.8137C13.2197 15.0238 13.3765 15.1892 13.5628 15.3099C13.287 15.4569 13.0642 15.6466 12.8941 15.8788C12.6486 16.2075 12.5258 16.6119 12.5258 17.0918C12.5258 17.4995 12.6265 17.8742 12.8279 18.2161C13.0358 18.558 13.3254 18.8309 13.6969 19.0347Z" fill="#8F90BE"/>
</svg>