<svg xmlns="http://www.w3.org/2000/svg" width="29" height="28" viewBox="0 0 29 28" fill="none">
  <path fill-rule="evenodd" clip-rule="evenodd" d="M16.0272 1.09951C15.3343 -0.366502 13.3324 -0.366502 12.6395 1.09951L9.77661 7.15675C9.50141 7.73894 8.96957 8.14242 8.35438 8.23578L1.95277 9.20712C0.403383 9.44217 -0.215265 11.4303 0.905818 12.5714L5.53807 17.2864C5.98332 17.7395 6.18646 18.3924 6.08132 19.0322L4.98779 25.6898C4.7232 27.3011 6.3428 28.5298 7.72859 27.769L13.4544 24.6258C14.0047 24.3237 14.662 24.3237 15.2123 24.6257L20.9381 27.769C22.3239 28.5298 23.9435 27.3011 23.6789 25.6898L22.5854 19.0322C22.4802 18.3924 22.6834 17.7395 23.1286 17.2864L27.7609 12.5714C28.882 11.4303 28.2633 9.44217 26.7139 9.20712L20.3123 8.23578C19.6971 8.14242 19.1653 7.73894 18.8901 7.15675L16.0272 1.09951ZM15.3034 12.9991L12.3756 19.2122H13.7923L16.6539 12.9991V11.8649H11.9883V12.9991H15.3034Z" fill="#8F90BE"/>
</svg>