<svg xmlns="http://www.w3.org/2000/svg" width="29" height="28" viewBox="0 0 29 28" fill="none">
  <path d="M13.9439 18.0988C13.8734 18.1113 13.8001 18.1175 13.7239 18.1175C13.5098 18.1175 13.3146 18.0682 13.1383 17.9696C12.962 17.8644 12.8203 17.7165 12.7133 17.5258C12.6666 17.4374 12.6308 17.3441 12.6058 17.2459C12.5767 17.1322 12.5622 17.0118 12.5622 16.8848C12.5622 16.6349 12.6126 16.4212 12.7133 16.2437C12.8203 16.0596 12.962 15.915 13.1383 15.8098C13.2252 15.7579 13.3168 15.7188 13.4129 15.6925C13.5117 15.6655 13.6154 15.652 13.7239 15.652C13.9443 15.652 14.1395 15.7046 14.3094 15.8098C14.4795 15.915 14.6148 16.0596 14.7156 16.2437C14.8226 16.4212 14.8762 16.6349 14.8762 16.8848C14.8762 17.1214 14.8226 17.3351 14.7156 17.5258C14.6148 17.7165 14.4764 17.8644 14.3 17.9696C14.1904 18.0331 14.0718 18.0762 13.9439 18.0988Z" fill="#8F90BE"/>
  <path fill-rule="evenodd" clip-rule="evenodd" d="M15.805 1.09951C15.1121 -0.366502 13.1102 -0.366502 12.4173 1.09951L9.55438 7.15675C9.27918 7.73894 8.74734 8.14242 8.13216 8.23578L1.73054 9.20712C0.181154 9.44217 -0.437494 11.4303 0.683589 12.5714L5.31584 17.2864C5.76109 17.7395 5.96423 18.3924 5.85909 19.0322L4.76556 25.6898C4.50097 27.3011 6.12057 28.5298 7.50636 27.769L13.2321 24.6258C13.7824 24.3237 14.4398 24.3237 14.9901 24.6257L20.7159 27.769C22.1017 28.5298 23.7213 27.3011 23.4567 25.6898L22.3631 19.0322C22.258 18.3924 22.4611 17.7395 22.9064 17.2864L27.5386 12.5714C28.6597 11.4303 28.0411 9.44217 26.4917 9.20712L20.0901 8.23578C19.4749 8.14242 18.943 7.73894 18.6679 7.15675L15.805 1.09951ZM12.4489 19.0149C12.8203 19.2253 13.2454 19.3305 13.7239 19.3305C14.1961 19.3305 14.6148 19.2253 14.9801 19.0149C15.3515 18.798 15.6411 18.5054 15.8489 18.1372C16.0568 17.7624 16.1606 17.3384 16.1606 16.865C16.1606 16.4245 16.063 16.03 15.8678 15.6816C15.6789 15.3265 15.4176 15.0471 15.0839 14.8433C14.7502 14.6395 14.3692 14.5376 13.9411 14.5376C13.8446 14.5376 13.7505 14.5456 13.6591 14.5617L15.6695 11.8649H14.1395L12.1749 14.5277C12.0642 14.6759 11.9651 14.818 11.8775 14.9542C11.7706 15.1201 11.6809 15.2771 11.6083 15.4251C11.4824 15.6947 11.3942 15.9479 11.3438 16.1845C11.2998 16.4212 11.2777 16.6579 11.2777 16.8946C11.2777 17.3614 11.3816 17.7789 11.5894 18.1471C11.7972 18.5087 12.0837 18.798 12.4489 19.0149Z" fill="#8F90BE"/>
</svg>