<svg xmlns="http://www.w3.org/2000/svg" width="29" height="28" viewBox="0 0 29 28" fill="none">
  <path d="M15.8377 15.2674C15.6677 15.366 15.4725 15.4153 15.2521 15.4153C15.038 15.4153 14.8428 15.366 14.6665 15.2674C14.4903 15.1622 14.3486 15.0175 14.2416 14.8334C14.1828 14.7223 14.1412 14.6033 14.1167 14.4765C14.0992 14.3858 14.0904 14.2911 14.0904 14.1924C14.0904 13.9426 14.1408 13.7256 14.2416 13.5415C14.3486 13.3574 14.4903 13.2128 14.6665 13.1076C14.8428 13.0024 15.038 12.9498 15.2521 12.9498C15.4725 12.9498 15.6677 13.0024 15.8377 13.1076C15.9209 13.1591 15.9958 13.2201 16.0625 13.2906C16.132 13.3639 16.1924 13.4476 16.2438 13.5415C16.3508 13.7256 16.4044 13.9426 16.4044 14.1924C16.4044 14.4291 16.3541 14.6427 16.2533 14.8334C16.1939 14.942 16.1213 15.0368 16.0356 15.1179C15.976 15.1744 15.9101 15.2242 15.8377 15.2674Z" fill="#8F90BE"/>
  <path fill-rule="evenodd" clip-rule="evenodd" d="M16.4716 1.09951C15.7788 -0.366502 13.7769 -0.366502 13.084 1.09951L10.2211 7.15675C9.94587 7.73894 9.41403 8.14242 8.79884 8.23578L2.39723 9.20712C0.847841 9.44217 0.229193 11.4303 1.35028 12.5714L5.98253 17.2864C6.42778 17.7395 6.63092 18.3924 6.52578 19.0322L5.43225 25.6898C5.16766 27.3011 6.78726 28.5298 8.17305 27.769L13.8988 24.6258C14.4491 24.3237 15.1065 24.3237 15.6568 24.6257L21.3826 27.769C22.7683 28.5298 24.3879 27.3011 24.1234 25.6898L23.0298 19.0322C22.9247 18.3924 23.1278 17.7395 23.5731 17.2864L28.2053 12.5714C29.3264 11.4303 28.7078 9.44217 27.1584 9.20712L20.7568 8.23578C20.1416 8.14242 19.6097 7.73894 19.3345 7.15675L16.4716 1.09951ZM15.2991 16.5185L13.2971 19.2122H14.8366L16.801 16.5494C17.0403 16.2142 17.2229 15.915 17.3489 15.652C17.481 15.3824 17.5723 15.1293 17.6227 14.8926C17.6731 14.6559 17.6983 14.4192 17.6983 14.1825C17.6983 13.7092 17.5912 13.2916 17.3771 12.9301C17.1694 12.5619 16.8829 12.2726 16.5178 12.0622C16.1525 11.8518 15.7307 11.7466 15.2521 11.7466C14.7799 11.7466 14.358 11.8551 13.9866 12.0721C13.6213 12.2824 13.3317 12.5717 13.1176 12.9399C12.9099 13.3081 12.806 13.7289 12.806 14.2023C12.806 14.6494 12.9004 15.0504 13.0894 15.4055C13.2846 15.7539 13.5489 16.03 13.8827 16.2338C14.2163 16.4377 14.5973 16.5396 15.0254 16.5396C15.1211 16.5396 15.2124 16.5325 15.2991 16.5185Z" fill="#8F90BE"/>
</svg>