<svg xmlns="http://www.w3.org/2000/svg" width="29" height="28" viewBox="0 0 29 28" fill="none">
  <path d="M13.0999 16.4705H15.0634V13.5246L13.0999 16.4705Z" fill="#8F90BE"/>
  <path fill-rule="evenodd" clip-rule="evenodd" d="M16.3605 1.09951C15.6676 -0.366502 13.6657 -0.366502 12.9728 1.09951L10.1099 7.15675C9.83472 7.73894 9.30289 8.14242 8.6877 8.23578L2.28608 9.20712C0.736696 9.44217 0.118048 11.4303 1.23913 12.5714L5.87138 17.2864C6.31663 17.7395 6.51978 18.3924 6.41463 19.0322L5.3211 25.6898C5.05651 27.3011 6.67611 28.5298 8.0619 27.769L13.7877 24.6258C14.338 24.3237 14.9953 24.3237 15.5456 24.6257L21.2714 27.769C22.6572 28.5298 24.2768 27.3011 24.0122 25.6898L22.9187 19.0322C22.8135 18.3924 23.0167 17.7395 23.4619 17.2864L28.0942 12.5714C29.2153 11.4303 28.5966 9.44217 27.0472 9.20712L20.6456 8.23578C20.0304 8.14242 19.4986 7.73894 19.2234 7.15675L16.3605 1.09951ZM15.0634 17.5948V19.2122H16.3289V17.5948H17.3583V16.4705H16.3289V11.8649H14.9877L11.8333 16.4705V17.5948H15.0634Z" fill="#8F90BE"/>
</svg>