<svg xmlns="http://www.w3.org/2000/svg" width="29" height="28" viewBox="0 0 29 28" fill="none">
  <path fill-rule="evenodd" clip-rule="evenodd" d="M16.1383 1.09951C15.4454 -0.366502 13.4435 -0.366502 12.7506 1.09951L9.88772 7.15675C9.61252 7.73894 9.08069 8.14242 8.4655 8.23578L2.06388 9.20712C0.514497 9.44217 -0.104151 11.4303 1.01693 12.5714L5.64919 17.2864C6.09444 17.7395 6.29758 18.3924 6.19243 19.0322L5.0989 25.6898C4.83431 27.3011 6.45391 28.5298 7.8397 27.769L13.5655 24.6258C14.1158 24.3237 14.7732 24.3237 15.3234 24.6257L21.0492 27.769C22.435 28.5298 24.0546 27.3011 23.79 25.6898L22.6965 19.0322C22.5913 18.3924 22.7945 17.7395 23.2397 17.2864L27.872 12.5714C28.9931 11.4303 28.3744 9.44217 26.825 9.20712L20.4234 8.23578C19.8082 8.14242 19.2764 7.73894 19.0012 7.15675L16.1383 1.09951ZM13.7014 19.1135C14.0477 19.2582 14.413 19.3305 14.797 19.3305C15.2818 19.3305 15.7163 19.2221 16.1004 19.0051C16.4844 18.7881 16.7867 18.4922 17.007 18.1175C17.2275 17.7361 17.3377 17.3088 17.3377 16.8354C17.3377 16.4015 17.2495 16.0235 17.0732 15.7013C16.8969 15.3792 16.6513 15.126 16.3365 14.9419C16.1169 14.8135 15.8712 14.7282 15.5994 14.6862L17.0448 12.9202V11.8649H12.7287V12.9991H15.5998L13.777 15.1687L14.0698 15.8098C14.1705 15.7572 14.2839 15.7177 14.4098 15.6914C14.542 15.6651 14.668 15.652 14.7876 15.652C15.0457 15.652 15.2692 15.7013 15.4582 15.7999C15.6471 15.8986 15.7919 16.0399 15.8926 16.224C15.9646 16.3433 16.0123 16.4804 16.0358 16.6354C16.0473 16.711 16.0531 16.7908 16.0531 16.8749C16.0531 17.1313 15.9996 17.3548 15.8926 17.5455C15.7855 17.7296 15.6376 17.871 15.4488 17.9696C15.2661 18.0682 15.0489 18.1175 14.797 18.1175C14.4822 18.1175 14.2083 18.032 13.9753 17.8611C13.7423 17.6836 13.5693 17.4272 13.4558 17.0918L12.332 17.506C12.4202 17.8808 12.5839 18.2062 12.8231 18.4824C13.0687 18.752 13.3614 18.9623 13.7014 19.1135Z" fill="#8F90BE"/>
</svg>