<svg xmlns="http://www.w3.org/2000/svg" width="28" height="28" viewBox="0 0 28 28" fill="none">
  <path d="M16.7358 17.8019C16.5091 18.0057 16.2352 18.1077 15.9141 18.1077C15.593 18.1077 15.316 18.0024 15.083 17.7921C14.8563 17.5817 14.68 17.2858 14.554 16.9044C14.4345 16.5166 14.3746 16.0596 14.3746 15.5337C14.3746 15.0011 14.4345 14.5442 14.554 14.1628C14.68 13.7749 14.8563 13.479 15.083 13.2752C15.3096 13.0714 15.5803 12.9695 15.8952 12.9695C16.2226 12.9695 16.4997 13.0714 16.7263 13.2752C16.9593 13.479 17.1356 13.7749 17.2553 14.1628C17.3812 14.5442 17.4441 15.0011 17.4441 15.5337C17.4441 16.0662 17.3812 16.5264 17.2553 16.9143C17.1356 17.2956 16.9624 17.5916 16.7358 17.8019Z" fill="#8F90BE"/>
  <path fill-rule="evenodd" clip-rule="evenodd" d="M15.6939 1.09951C15.001 -0.366502 12.9991 -0.366502 12.3062 1.09951L9.44332 7.15675C9.16813 7.73894 8.63629 8.14242 8.0211 8.23578L1.61949 9.20712C0.0701004 9.44217 -0.548548 11.4303 0.572536 12.5714L5.20479 17.2864C5.65004 17.7395 5.85318 18.3924 5.74804 19.0322L4.65451 25.6898C4.38992 27.3011 6.00951 28.5298 7.39531 27.769L13.1211 24.6258C13.6714 24.3237 14.3288 24.3237 14.879 24.6257L20.6048 27.769C21.9906 28.5298 23.6102 27.3011 23.3456 25.6898L22.2521 19.0322C22.1469 18.3924 22.3501 17.7395 22.7953 17.2864L27.4276 12.5714C28.5487 11.4303 27.93 9.44217 26.3806 9.20712L19.979 8.23578C19.3638 8.14242 18.832 7.73894 18.5568 7.15675L15.6939 1.09951ZM14.4312 18.8572C14.8532 19.1728 15.3442 19.3305 15.9047 19.3305C16.4713 19.3305 16.9656 19.1728 17.3874 18.8572C17.8094 18.535 18.1367 18.0912 18.3697 17.5258C18.6089 16.9538 18.7286 16.2898 18.7286 15.5337C18.7286 14.7775 18.6089 14.1168 18.3697 13.5514C18.1305 12.9794 17.7999 12.5356 17.3781 12.22C16.9624 11.9044 16.4682 11.7466 15.8952 11.7466C15.3348 11.7466 14.8438 11.9044 14.4219 12.22C13.9999 12.5356 13.6726 12.9761 13.4396 13.5415C13.2066 14.1069 13.0902 14.771 13.0902 15.5337C13.0902 16.2898 13.2066 16.9538 13.4396 17.5258C13.6789 18.0978 14.0094 18.5416 14.4312 18.8572ZM10.3859 13.009V19.2122H11.6705V11.8649H9.02597V13.009H10.3859Z" fill="#fff"/>
</svg>